<svg id="Layer_1_1_" enable-background="new 0 0 64 64" height="512" viewBox="0 0 64 64" width="512" xmlns="http://www.w3.org/2000/svg"><path d="m54 15h-.026c0-.081.016-.162-.005-.243l-3-12c-.111-.445-.51-.757-.969-.757h-36c-.459 0-.858.312-.97.757l-3 12c-.02.081-.005.161-.005.243h-.025v38h.007c0 .118.014.237.057.351l3 8c.146.39.519.649.936.649h36c.417 0 .79-.259.937-.649l3-8c.043-.114.057-.233.057-.351h.006zm-42 1h40v36h-40zm2.781-12h34.438l2.5 10h-39.438zm34.526 56h-34.614l-2.25-6h39.113z"/><path d="m31 56h2v2h-2z"/><path d="m27 56h2v2h-2z"/><path d="m35 56h2v2h-2z"/><path d="m32 6c-2.851 0-5 1.29-5 3s2.149 3 5 3 5-1.29 5-3-2.149-3-5-3zm0 4c-1.936 0-3-.751-3-1s1.064-1 3-1 3 .751 3 1-1.064 1-3 1z"/><path d="m32 19c-6.012 0-13 7.863-13 18 0 7.514 4.859 12 13 12s13-4.486 13-12c0-10.137-6.988-18-13-18zm0 28c-3.308 0-11-.975-11-10 0-7.202 5.076-16 11-16s11 8.798 11 16c0 9.025-7.692 10-11 10z"/><path d="m31 31h2c.552 0 1 .449 1 1h2c0-1.654-1.346-3-3-3v-2h-2v2c-1.654 0-3 1.346-3 3v1c0 1.654 1.346 3 3 3h2c.552 0 1 .449 1 1v1c0 .551-.448 1-1 1h-2c-.552 0-1-.449-1-1h-2c0 1.654 1.346 3 3 3v2h2v-2c1.654 0 3-1.346 3-3v-1c0-1.654-1.346-3-3-3h-2c-.552 0-1-.449-1-1v-1c0-.551.448-1 1-1z"/><path d="m48 18h2v2h-2z"/><path d="m48 22h2v8h-2z"/></svg>