<svg id="Capa_1" enable-background="new 0 0 512.661 512.661" height="512" viewBox="0 0 512.661 512.661" width="512" xmlns="http://www.w3.org/2000/svg"><g><path d="m130.754 273.202c-4.145 0-7.505 3.358-7.505 7.5s3.36 7.5 7.505 7.5 7.505-3.358 7.505-7.5-3.36-7.5-7.505-7.5zm-41.676-49.366c-3.056-3.944-4.739-8.865-4.739-13.855v-35.022c0-4.142-3.358-7.5-7.5-7.5s-7.5 3.358-7.5 7.5v35.022c0 8.299 2.799 16.482 7.882 23.042l4.905 6.332c1.478 1.908 3.694 2.907 5.934 2.907 1.604 0 3.221-.513 4.588-1.572 3.274-2.537 3.873-7.248 1.335-10.522zm66.762 49.366c-4.145 0-7.505 3.358-7.505 7.5s3.36 7.5 7.505 7.5 7.505-3.358 7.505-7.5-3.36-7.5-7.505-7.5zm101.068-145.122c4.142 0 7.5-3.358 7.5-7.5v-3.939c9.426-2.981 16.279-11.807 16.279-22.206v-.74c0-13.248-10.778-24.025-24.025-24.025-4.977 0-9.025-4.049-9.025-9.026v-.74c0-4.569 3.717-8.286 8.285-8.286h1.48c3.689 0 6.968 2.474 7.973 6.015 1.13 3.985 5.272 6.297 9.262 5.169 3.985-1.13 6.299-5.277 5.169-9.262-2.165-7.635-8.086-13.492-15.396-15.819v-3.963c0-4.142-3.358-7.5-7.5-7.5s-7.5 3.358-7.5 7.5v3.793c-9.678 2.825-16.772 11.773-16.772 22.352v.74c0 13.248 10.778 24.026 24.025 24.026 4.977 0 9.025 4.049 9.025 9.025v.74c0 4.569-3.717 8.286-8.286 8.286h-1.48c-3.645 0-6.912-2.436-7.946-5.924-1.177-3.972-5.352-6.235-9.322-5.06-3.971 1.177-6.236 5.351-5.06 9.322 2.271 7.661 8.375 13.501 15.814 15.699v3.822c0 4.143 3.358 7.501 7.5 7.501zm-45.546 11.155c13.577 9.91 29.479 14.826 45.338 14.826 17.539 0 35.028-6.013 49.263-17.934 3.176-2.659 3.595-7.39.935-10.565-2.66-3.177-7.391-3.595-10.565-.935-21.811 18.263-53.115 19.289-76.128 2.492-13.342-9.738-22.093-24.088-24.642-40.408s1.411-32.656 11.149-45.998c20.102-27.542 58.862-33.595 86.406-13.493 23.885 17.433 32.108 49.475 19.554 76.188-1.762 3.749-.151 8.216 3.598 9.978 3.749 1.763 8.216.152 9.978-3.598 15.604-33.204 5.391-73.024-24.286-94.685-34.224-24.977-82.389-17.457-107.366 16.767-12.1 16.578-17.02 36.876-13.853 57.155 3.166 20.278 14.04 38.11 30.619 50.21zm-126.777-18.655v-3.939c9.426-2.981 16.279-11.807 16.279-22.206v-.74c0-13.248-10.778-24.025-24.025-24.025-4.977 0-9.026-4.049-9.026-9.026v-.74c0-4.569 3.717-8.286 8.286-8.286h1.48c3.689 0 6.968 2.474 7.973 6.016 1.13 3.984 5.273 6.296 9.262 5.168 3.985-1.13 6.299-5.277 5.168-9.262-2.166-7.635-8.086-13.491-15.396-15.818v-3.963c0-4.142-3.358-7.5-7.5-7.5s-7.5 3.358-7.5 7.5v3.793c-9.679 2.825-16.772 11.773-16.772 22.352v.74c0 13.248 10.778 24.026 24.026 24.026 4.977 0 9.025 4.049 9.025 9.025v.74c0 4.569-3.717 8.286-8.286 8.286h-1.48c-3.645 0-6.912-2.436-7.946-5.924-1.177-3.972-5.353-6.235-9.322-5.06-3.971 1.177-6.236 5.351-5.06 9.322 2.271 7.661 8.375 13.501 15.814 15.699v3.822c0 4.142 3.358 7.5 7.5 7.5s7.5-3.358 7.5-7.5zm164.823 56.209v48.26c0 4.142 3.358 7.5 7.5 7.5s7.5-3.358 7.5-7.5v-48.26c0-4.142-3.358-7.5-7.5-7.5s-7.5 3.357-7.5 7.5zm-95.731-99.62c0-42.369-34.47-76.839-76.838-76.839-42.369.001-76.839 34.47-76.839 76.839s34.47 76.838 76.839 76.838c42.369.001 76.838-34.469 76.838-76.838zm-138.677 0c0-34.098 27.741-61.839 61.839-61.839s61.838 27.741 61.838 61.839-27.741 61.838-61.838 61.838c-34.098.001-61.839-27.74-61.839-61.838zm420.822-7.5c-4.977 0-9.025-4.049-9.025-9.026v-.74c0-4.569 3.717-8.286 8.286-8.286h1.48c3.689 0 6.968 2.474 7.973 6.016 1.13 3.984 5.275 6.296 9.262 5.168 3.985-1.13 6.299-5.277 5.168-9.262-2.166-7.635-8.087-13.491-15.397-15.818v-3.963c0-4.142-3.358-7.5-7.5-7.5s-7.5 3.358-7.5 7.5v3.793c-9.678 2.825-16.772 11.773-16.772 22.352v.74c0 13.248 10.778 24.026 24.025 24.026 4.977 0 9.026 4.049 9.026 9.025v.74c0 4.569-3.717 8.286-8.286 8.286h-1.48c-3.645 0-6.913-2.436-7.946-5.924-1.177-3.972-5.352-6.235-9.322-5.06-3.971 1.177-6.236 5.351-5.06 9.322 2.271 7.661 8.375 13.501 15.814 15.699v3.822c0 4.142 3.358 7.5 7.5 7.5s7.5-3.358 7.5-7.5v-3.938c9.426-2.981 16.279-11.807 16.279-22.207v-.74c.001-13.247-10.777-24.025-24.025-24.025zm-46.574 178.635h-95.899-55.255-114.68c-15.05 0-27.295 12.244-27.295 27.294v209.438c0 15.05 12.245 27.294 27.295 27.294h265.834c15.05 0 27.295-12.244 27.295-27.294v-209.437c-.001-15.051-12.245-27.295-27.295-27.295zm-278.129 27.295c0-6.779 5.516-12.294 12.295-12.294h88.393c-.74 1.256-1.402 2.573-1.967 3.952l-8.692 21.202c-2.401 5.858-8.044 9.643-14.375 9.643h-75.653v-22.503zm290.423 209.437c0 6.779-5.516 12.294-12.295 12.294h-265.833c-6.779 0-12.295-5.515-12.295-12.294v-171.935h75.653c12.443 0 23.534-7.439 28.254-18.952l8.692-21.202c2.401-5.858 8.044-9.643 14.375-9.643h55.255c5.823 0 11.107 3.21 13.79 8.379l12.949 24.949c5.272 10.158 15.658 16.469 27.103 16.469h54.353v171.935zm0-186.935h-54.352c-5.823 0-11.106-3.21-13.789-8.379l-12.949-24.949c-.26-.502-.543-.986-.828-1.469h69.624c6.779 0 12.295 5.515 12.295 12.294v22.503zm34.28-130.642c-4.142 0-7.5 3.358-7.5 7.5v35.022c0 4.99-1.683 9.911-4.739 13.855l-4.905 6.332c-2.537 3.274-1.939 7.985 1.335 10.522 1.367 1.059 2.983 1.572 4.588 1.572 2.24 0 4.457-1 5.934-2.907l4.905-6.331c5.083-6.56 7.882-14.743 7.882-23.042v-35.022c0-4.143-3.358-7.501-7.5-7.501zm0-167.128c-42.369 0-76.838 34.47-76.838 76.839s34.47 76.838 76.838 76.838c42.369 0 76.839-34.47 76.839-76.838 0-42.37-34.47-76.839-76.839-76.839zm0 138.677c-34.098 0-61.838-27.741-61.838-61.838 0-34.098 27.741-61.839 61.838-61.839 34.098 0 61.839 27.741 61.839 61.839 0 34.097-27.741 61.838-61.839 61.838zm-110.991 198.583c0 4.142 3.358 7.5 7.5 7.5h38.464v52.004h-228.929v-52.004h160.464c4.142 0 7.5-3.358 7.5-7.5s-3.358-7.5-7.5-7.5h-163.092c-6.822 0-12.372 5.55-12.372 12.372v57.261c0 6.822 5.55 12.372 12.372 12.372h234.185c6.822 0 12.372-5.55 12.372-12.372v-57.261c0-6.822-5.55-12.372-12.372-12.372h-41.092c-4.143 0-7.5 3.358-7.5 7.5zm-79.569-44.959h28.263c4.142 0 7.5-3.358 7.5-7.5s-3.358-7.5-7.5-7.5h-28.263c-4.142 0-7.5 3.358-7.5 7.5s3.358 7.5 7.5 7.5zm-33.383 169.012h-77.513c-4.142 0-7.5 3.358-7.5 7.5s3.358 7.5 7.5 7.5h77.513c4.142 0 7.5-3.358 7.5-7.5s-3.358-7.5-7.5-7.5zm-22.796-180.942c0-4.142-3.36-7.5-7.505-7.5s-7.505 3.358-7.505 7.5 3.36 7.5 7.505 7.5 7.505-3.358 7.505-7.5zm55.68 151.953h-110.397c-4.142 0-7.5 3.358-7.5 7.5s3.358 7.5 7.5 7.5h110.396c4.142 0 7.5-3.358 7.5-7.5s-3.357-7.5-7.499-7.5z"/></g></svg>