<svg id="Capa_1" enable-background="new 0 0 510.85 510.85" height="512" viewBox="0 0 510.85 510.85" width="512" xmlns="http://www.w3.org/2000/svg"><path d="m494.086 484.28-168.989-301.218c-9.566-17.058-24.609-29.766-42.672-36.17v-26.892c0-4.143-3.357-7.5-7.5-7.5s-7.5 3.357-7.5 7.5v23.148c-7.961-1.193-16.041-1.194-24-.001v-124.217c0-2.167 1.763-3.93 3.93-3.93h16.141c2.167 0 3.93 1.763 3.93 3.93v67.07c0 4.143 3.357 7.5 7.5 7.5s7.5-3.357 7.5-7.5v-67.07c0-10.438-8.492-18.93-18.93-18.93h-16.141c-7.819 0-14.545 4.767-17.429 11.546l-72.618 29.404c-5.327 2.164-8.762 6.864-8.964 12.267-.199 5.345 2.826 10.228 7.896 12.743l72.186 35.821v45.111c-18.069 6.403-33.115 19.111-42.681 36.168l-168.983 301.224c-3.129 5.585-3.064 12.218.174 17.743 3.236 5.524 8.99 8.822 15.39 8.822h88.6c4.143 0 7.5-3.357 7.5-7.5s-3.357-7.5-7.5-7.5h-88.6c-1.414 0-2.141-.881-2.448-1.405-.308-.526-.722-1.593-.031-2.824l119.785-213.527 21.701-10.943c4.852-2.445 10.618-1.982 15.051 1.204l22.375 16.104c9.498 6.846 22.47 7.398 32.51 1.366l18.635-11.207c5.225-3.135 11.712-2.72 16.527 1.061l8.527 6.694c10.427 8.206 24.679 8.543 35.453.846l12.712-9.043c3.843-2.733 8.767-3.459 13.171-1.94l14.43 4.987 120.279 214.394c.692 1.235.278 2.302-.029 2.828-.308.524-1.034 1.405-2.448 1.405h-322.6c-4.143 0-7.5 3.357-7.5 7.5s3.357 7.5 7.5 7.5h322.6c6.399 0 12.153-3.298 15.39-8.822 3.236-5.525 3.301-12.158.17-17.747zm-328.575-430.468 62.914-25.475v56.697zm158.915 208.142-12.723 9.051c-5.31 3.791-12.331 3.625-17.477-.425l-8.535-6.7c-9.752-7.654-22.903-8.488-33.514-2.119l-18.637 11.209c-4.994 2.998-11.278 2.731-16.015-.682l-22.384-16.11c-8.99-6.466-20.704-7.393-30.563-2.421l-1.807.911 36.055-64.271c8.376-14.937 21.894-25.765 38.062-30.488.114-.033.227-.069.338-.107 11.91-3.408 24.479-3.408 36.398 0 .11.038.222.074.335.106 16.163 4.726 29.677 15.554 38.054 30.491l37.7 67.198c-8.585-2.46-17.931-.877-25.287 4.357z"/></svg>