<svg height="512" viewBox="0 0 46 60" width="512" xmlns="http://www.w3.org/2000/svg"><g id="Page-1" fill="none" fill-rule="evenodd"><g id="093---Portals" fill="rgb(0,0,0)" fill-rule="nonzero" transform="translate(0 -1)"><path id="Shape" d="m40 55c0-3.156-5.524-4.955-11-5.641v-6.7l3.181 2.464c.7054617.6164144 1.6260846.9288007 2.561.869.914716-.057137 1.7688442-.4768224 2.373-1.166.6179883-.6996288.9320184-1.6165033.8727264-2.5481011s-.4870274-1.8012622-1.1887264-2.4168989l-7.491-6.24c-.6599839-.544935-1.414524-.9638979-2.226-1.236 1.8100864-1.6799547 2.4059605-4.2973842 1.5014678-6.5953297-.9044926-2.2979455-3.1245832-3.8069851-5.5941257-3.8024383-2.4695424.0045468-4.6840611 1.5217514-5.5800859 3.8230119-.8960247 2.3012606-.2905164 4.9164781 1.5257438 6.5897561-.8406552.2932246-1.6175731.7443054-2.289 1.329l-7.471 6.525c-1.42428401 1.2853155-1.54840115 3.4776637-.2782862 4.9155193 1.270115 1.4378556 3.4610211 1.5852518 4.9122862.3304807l3.191-2.715v6.574c-5.476.686-11 2.485-11 5.641 0 3.939 8.552 6 17 6s17-2.061 17-6zm-16-.018v-2.982c0-.5522847-.4477153-1-1-1s-1 .4477153-1 1v2.983c-1.022-.02-2.024-.069-3-.15v-5.833h8v5.834c-.976.08-1.978.128-3 .148zm-1-30.982c2.209139 0 4 1.790861 4 4s-1.790861 4-4 4-4-1.790861-4-4 1.790861-4 4-4zm-10.5 19.994c-.6188351.5522847-1.5682153.4983351-2.1205-.1205-.55228475-.6188351-.49833506-1.5682153.1205-2.1205l7.463-6.519c.9107359-.7953723 2.0788445-1.2337683 3.288-1.234h3.577c1.1691212.0007249 2.3011608.4103818 3.2 1.158l7.465 6.218c.6212471.5528725.6767602 1.504653.124 2.126-.2568361.2945293-.6209602.4738902-1.011.498-.4257301.0274976-.8437369-.1231877-1.154-.416l-4.84-3.75c-.3010123-.2329435-.7081644-.2748087-1.0502816-.1079948-.3421172.166814-.5598729.51338-.5617184.8939948v6.38h-8v-6.379c.0004732-.3903224-.2262006-.7452468-.5805222-.9089782s-.7715251-.1063415-1.0684778.1469782zm10.5 15.006c-9.157 0-15-2.369-15-4 0-1.033 2.871-2.829 9-3.625v3.245c-.263-.034-.53-.063-.788-.1-.3533357-.0535899-.7084212.0853934-.9314992.3645962-.223078.2792027-.2802577.6562074-.15.989s.4281635.570814.7814992.6244038c2.3469635.3427365 4.7161583.5105322 7.088.502 2.4353911.0085533 4.8678535-.1696356 7.276-.533.3531571-.0548403.6502307-.2939218.7793162-.6271849.1290854-.3332631.0705716-.7100772-.1535-.9885-.2240716-.2784229-.5796592-.4161554-.9328162-.3613151-.317.05-.645.088-.969.13v-3.245c6.129.8 9 2.592 9 3.625 0 1.631-5.843 4-15 4z"/><path id="Shape" d="m20.5 18c.9420809-.0002647 1.8439224-.381924 2.5-1.058.9918202 1.0194066 2.5024675 1.3361048 3.8202062.8008833 1.3177386-.5352216 2.1797077-1.8155974 2.1797938-3.2378833v-1.864c5.476-.686 11-2.485 11-5.641 0-3.939-8.552-6-17-6s-17 2.061-17 6c0 3.156 5.524 4.955 11 5.641v1.859c0 1.9329966 1.5670034 3.5 3.5 3.5zm0-2c-.8284271 0-1.5-.6715729-1.5-1.5v-7.333c.976-.081 1.978-.13 3-.15v7.483c0 .8284271-.6715729 1.5-1.5 1.5zm5 0c-.8284271 0-1.5-.6715729-1.5-1.5v-7.482c1.022.02 2.024.068 3 .148v7.334c0 .8284271-.6715729 1.5-1.5 1.5zm-17.5-9c0-1.631 5.843-4 15-4s15 2.369 15 4c0 1.033-2.871 2.829-9 3.625v-3.245c.324.042.652.08.969.13.0513114.00760645.1031287.01128381.155.011.5217761-.00127048.9548765-.40350162.9946549-.92376079.0397783-.52025918-.327137-.98365852-.8426549-1.06423921-2.4081465-.36336436-4.8406089-.54155326-7.276-.533-2.3711247-.00909534-4.739647.15803155-7.086.5-.3533357.05358983-.6512415.29161122-.7814991.62440381-.1302577.33279259-.073078.70979726.15.98900001s.5781634.41818603.9314991.36459618c.258-.039.525-.068.788-.1v3.247c-6.131-.796-9.002-2.592-9.002-3.625z"/><path id="Shape" d="m6.361 59.067c-1.989-.767-4.361-2.1-4.361-4.067 0-1.582 1.467-2.951 4.36-4.071.51528165-.1990987.77159861-.7782183.57249996-1.2935-.19909864-.5152816-.77821829-.7715986-1.29349996-.5725-3.739 1.453-5.639 3.45-5.639 5.937s1.9 4.479 5.639 5.929c.51528166.1993747 1.09462514-.0567184 1.29399992-.572.19937479-.5152817-.05671829-1.0946252-.57199992-1.294z"/><path id="Shape" d="m40.362 49.067c-.3333288-.1291515-.7102388-.0706636-.9887517.1534318-.2785129.2240955-.4163159.5797531-.3615.933.0548159.353247.2939229.6504167.6272517.7795682 2.894 1.121 4.361 2.49 4.361 4.067 0 1.963-2.372 3.293-4.361 4.063-.5152817.1993748-.7713748.7787183-.572 1.294s.7787183.7713748 1.294.572c3.739-1.446 5.639-3.44 5.639-5.929s-1.9-4.483-5.638-5.933z"/><path id="Shape" d="m0 7c0 2.485 1.9 4.479 5.639 5.929.51528167.1993748 1.09462521-.0567183 1.294-.572s-.05671833-1.0946252-.572-1.294c-1.989-.763-4.361-2.096-4.361-4.063 0-1.582 1.467-2.951 4.36-4.071.48250925-.21938255.71002695-.77713666.51863301-1.27141616-.19139395-.49427951-.73520519-.75336113-1.23963301-.59058384-3.739 1.449-5.639 3.446-5.639 5.933z"/><path id="Shape" d="m40.362 1.067c-.3333288-.12915151-.7102388-.07066363-.9887517.15343182s-.4163159.57975304-.3615.933.2939229.65041667.6272517.77956818c2.894 1.121 4.361 2.49 4.361 4.067 0 1.963-2.372 3.293-4.361 4.063-.5152817.1993748-.7713748.7787183-.572 1.294s.7787183.7713748 1.294.572c3.739-1.446 5.639-3.44 5.639-5.929s-1.9-4.483-5.638-5.933z"/></g></g></svg>