<?xml version="1.0"?>
<svg xmlns="http://www.w3.org/2000/svg" id="outline" viewBox="0 0 512 512" width="512" height="512"><path d="M488.94434,40l6.21093-12.42236A7.99928,7.99928,0,0,0,488,16H440a8.00008,8.00008,0,0,0-8,8V152H416a8.00008,8.00008,0,0,0-8,8v24a8.00008,8.00008,0,0,0-8,8v32H344a8.00008,8.00008,0,0,0-8,8v48H280a8.00008,8.00008,0,0,0-8,8v25.87042l-21.249-12.74933,31.03808-55.86816a49.35751,49.35751,0,0,0-14.458-64.1333L235.3125,158.24951l14.54688-19.395,7.04687,4.69776a50.29724,50.29724,0,0,0,65.75293-8.72852l38.34961-43.82764a28.25513,28.25513,0,0,0-1.28418-38.58545L349.65723,42.34326a8.00122,8.00122,0,0,0-11.31446,0L328,52.686l-.68848-.689A13.65738,13.65738,0,0,0,304,61.65674V76.686L287.40625,93.27979,255.67871,67.89746A24.049,24.049,0,0,0,256,64V51.31372l2.34375-2.344A19.31355,19.31355,0,0,0,244.68652,16H232a24.02718,24.02718,0,0,0-24,24V56H149.25488a39.74371,39.74371,0,0,0-28.28515,11.71582L68.15625,120.53027a24.1176,24.1176,0,0,0-2.23047,31.3711L81.59961,172.7998a8.00031,8.00031,0,0,0,12.05762.85694L104,163.314l.68848.689A13.65738,13.65738,0,0,0,128,154.34326V139.31348L155.31348,112h16.55468l-19.22168,44.84863a7.99165,7.99165,0,0,0-.39819,1.2132l-.009-.00226L137.75391,216H56a8.00008,8.00008,0,0,0-8,8v64a8.00008,8.00008,0,0,0,8,8H72a7.99975,7.99975,0,0,0,7.42773-5.02881l13.47461-33.68652,44.68946,9.93115a39.94573,39.94573,0,0,0,41.22656-15.79834L201.752,219.31091l20.72266,9.21009-22.19238,81.374A7.98446,7.98446,0,0,0,200,312v24a8.00008,8.00008,0,0,0,8,8v24H152a8.00008,8.00008,0,0,0-8,8v24H88a8.00008,8.00008,0,0,0-8,8v24H24a8.00008,8.00008,0,0,0-8,8v48a8.00008,8.00008,0,0,0,8,8H472a8.00008,8.00008,0,0,0,8-8V192a8.00008,8.00008,0,0,0-8-8V160a8.00008,8.00008,0,0,0-8-8H448V64h40a7.99928,7.99928,0,0,0,7.15527-11.57764ZM264.45117,328H216v-9.75366l22.72559-5.6814ZM241.59961,123.2002,219.99976,152H172.13281l19.22071-44.84863A8.00047,8.00047,0,0,0,184,96h-8V72h33.37622a23.99684,23.99684,0,0,0,4.08521,7.22455L194.34277,98.34326l11.31446,11.31348L216,99.31366V128h16V99.31366l10.34277,10.34308,11.31446-11.31348-12.261-12.261a24.04543,24.04543,0,0,0,6.37793-4.0174l24.1731,19.33844L255.47363,123.368l-3.03613-2.02423A7.99771,7.99771,0,0,0,241.59961,123.2002ZM224,59.31348,227.31348,56H240v8a8,8,0,0,1-16,0Zm69.65723,50.34326,24-24A8.00035,8.00035,0,0,0,320,80V67.31348l2.34277,2.34326a8.00063,8.00063,0,0,0,11.31446,0L344,59.31348l4.41016,4.41064a12.25409,12.25409,0,0,1,.55761,16.73535L310.61816,124.2876a34.23339,34.23339,0,0,1-41.68115,7.79657l15.64478-20.8595A7.99693,7.99693,0,0,0,293.65723,109.65674ZM232,32h12.68652a3.31353,3.31353,0,0,1,2.34278,5.65674L244.686,40H224A8.00917,8.00917,0,0,1,232,32ZM152,96a8.00076,8.00076,0,0,0-5.65723,2.34326l-32,32A8.00035,8.00035,0,0,0,112,136v12.68652l-2.34277-2.34326a8.00063,8.00063,0,0,0-11.31446,0l-9.47754,9.47754-10.13867-13.519a8.03826,8.03826,0,0,1,.74317-10.45752L132.2832,79.02979A23.84779,23.84779,0,0,1,149.25488,72H160V96ZM66.584,280H64V232H74.23364l5.25,15.75031Zm99.21485-37.88232a23.95987,23.95987,0,0,1-24.73633,9.479L94.15723,241.17334,91.09961,232H144a7.9992,7.9992,0,0,0,7.76074-6.05957l8.91822-35.67261a57.19163,57.19163,0,0,0,25.3142,22.03931l.83423.37079ZM235.249,216.68945,192.49121,197.686A41.27252,41.27252,0,0,1,168.80225,168H221.436l36.59521,26.13916a33.35856,33.35856,0,0,1,9.77148,43.34375l-33.11035,59.5976-15.37988,3.845L239.71777,226.105A7.99907,7.99907,0,0,0,235.249,216.68945ZM32,448H80v32H32Zm64-32h48v64H96Zm64-32h48v96H160Zm64-40h48V480H224Zm64-48h48V480H288Zm64-56h48V480H352ZM464,480H416V200h48Zm-8-296H424V168h32ZM472.84473,43.57764,475.05566,48H448V32h27.05566l-2.21093,4.42236A8.00053,8.00053,0,0,0,472.84473,43.57764Z"/></svg>
