<svg height="512" viewBox="0 0 60 60" width="512" xmlns="http://www.w3.org/2000/svg"><g id="Page-1" fill="none" fill-rule="evenodd"><g id="070---Email-List" fill="rgb(0,0,0)" fill-rule="nonzero"><path id="Shape" d="m22 6c-2.8312357 0-5.3836897 1.70549525-6.4671567 4.321216-1.083467 2.6157207-.4845767 5.6265455 1.5174092 7.6285315 2.001986 2.0019859 5.0128108 2.6008762 7.6285315 1.5174092 2.6157208-1.083467 4.321216-3.635921 4.321216-6.4671567-.0049584-3.86393756-3.1360624-6.99504164-7-7zm-1 7c0-.5522847.4477153-1 1-1s1 .4477153 1 1-.4477153 1-1 1-1-.4477153-1-1zm-.959 4.6c.1912262-.9298163 1.0097236-1.5971117 1.959-1.5971117s1.7677738.6672954 1.959 1.5971117c-1.2509989.5360276-2.6670011.5360276-3.918 0zm5.614-1.21c-.2813263-.6285327-.7201522-1.1737928-1.274-1.583.3995428-.5178142.6171178-1.1529645.619-1.807 0-1.6568542-1.3431458-2.9999999-3-2.9999999s-3 1.3431457-3 2.9999999c.0034183.6516359.2209112 1.2840869.619 1.8-.5538478.4092072-.9926737.9544673-1.274 1.583-1.853859-1.985955-1.7827121-5.0888182.1602242-6.98771482 1.9429364-1.89889665 5.0466152-1.89889665 6.9895516 0 1.9429363 1.89889662 2.0140832 5.00175982.1602242 6.98771482z"/><path id="Shape" d="m22 22c-3.8659932 0-7 3.1340068-7 7s3.1340068 7 7 7 7-3.1340068 7-7c-.0049584-3.8639376-3.1360624-6.9950416-7-7zm-1 7c0-.5522847.4477153-1 1-1s1 .4477153 1 1-.4477153 1-1 1-1-.4477153-1-1zm-.959 4.6c.1912262-.9298163 1.0097236-1.5971117 1.959-1.5971117s1.7677738.6672954 1.959 1.5971117c-1.2509989.5360276-2.6670011.5360276-3.918 0zm5.614-1.21c-.2813263-.6285327-.7201522-1.1737928-1.274-1.583.3995428-.5178142.6171178-1.1529645.619-1.807 0-1.6568542-1.3431458-2.9999999-3-2.9999999s-3 1.3431457-3 2.9999999c.0034183.6516359.2209112 1.2840869.619 1.8-.5538478.4092072-.9926737.9544673-1.274 1.583-1.853859-1.985955-1.7827121-5.0888182.1602242-6.9877148 1.9429364-1.8988967 5.0466152-1.8988967 6.9895516 0 1.9429363 1.8988966 2.0140832 5.0017598.1602242 6.9877148z"/><path id="Shape" d="m22 38c-3.8659932 0-7 3.1340068-7 7s3.1340068 7 7 7 7-3.1340068 7-7c-.0049584-3.8639376-3.1360624-6.9950416-7-7zm-1 7c0-.5522847.4477153-1 1-1s1 .4477153 1 1-.4477153 1-1 1-1-.4477153-1-1zm-.959 4.6c.1912262-.9298163 1.0097236-1.5971117 1.959-1.5971117s1.7677738.6672954 1.959 1.5971117c-1.2509989.5360276-2.6670011.5360276-3.918 0zm5.614-1.21c-.2813263-.6285327-.7201522-1.1737928-1.274-1.583.3995428-.5178142.6171178-1.1529645.619-1.807 0-1.6568542-1.3431458-2.9999999-3-2.9999999s-3 1.3431457-3 2.9999999c.0034183.6516359.2209112 1.2840869.619 1.8-.5538478.4092072-.9926737.9544673-1.274 1.583-1.853859-1.985955-1.7827121-5.0888182.1602242-6.9877148 1.9429364-1.8988967 5.0466152-1.8988967 6.9895516 0 1.9429363 1.8988966 2.0140832 5.0017598.1602242 6.9877148z"/><path id="Shape" d="m33 9h3c.5522847 0 1-.44771525 1-1s-.4477153-1-1-1h-3c-.5522847 0-1 .44771525-1 1s.4477153 1 1 1z"/><path id="Shape" d="m33 14h11c.5522847 0 1-.4477153 1-1s-.4477153-1-1-1h-11c-.5522847 0-1 .4477153-1 1s.4477153 1 1 1z"/><path id="Shape" d="m33 18h6c.5522847 0 1-.4477153 1-1s-.4477153-1-1-1h-6c-.5522847 0-1 .4477153-1 1s.4477153 1 1 1z"/><path id="Shape" d="m33 25h3c.5522847 0 1-.4477153 1-1s-.4477153-1-1-1h-3c-.5522847 0-1 .4477153-1 1s.4477153 1 1 1z"/><path id="Shape" d="m33 30h11c.5522847 0 1-.4477153 1-1s-.4477153-1-1-1h-11c-.5522847 0-1 .4477153-1 1s.4477153 1 1 1z"/><path id="Shape" d="m33 34h6c.5522847 0 1-.4477153 1-1s-.4477153-1-1-1h-6c-.5522847 0-1 .4477153-1 1s.4477153 1 1 1z"/><path id="Shape" d="m50 34.363v-29.363c-.0033061-2.76005315-2.2399468-4.99669388-5-5h-40c-2.76005315.00330612-4.99669388 2.23994685-5 5v36c0 1.1045695.8954305 2 2 2h6v11c0 1.1045695.8954305 2 2 2h27.641c3.8370075 3.995481 9.7857446 5.1178254 14.8148041 2.7950996 5.0290595-2.3227259 8.0316138-7.5793216 7.477596-13.0910871-.5540177-5.5117655-4.5426756-10.0656362-9.9334001-11.3410125zm-48 6.637v-36c0-1.65685425 1.34314575-3 3-3s3 1.34314575 3 3v36zm8 13v-49c.0019591-1.08216807-.3491319-2.13544099-1-3h36c1.6568542 0 3 1.34314575 3 3v29.051c-.331-.026-.662-.051-1-.051-3.9966539.0022505-7.7690765 1.8469559-10.225 5h-3.775c-.5522847 0-1 .4477153-1 1s.4477153 1 1 1h2.479c-.4949317.9498673-.8698088 1.9576013-1.116 3h-1.363c-.5522847 0-1 .4477153-1 1s.4477153 1 1 1h1.051c-.026.331-.051.662-.051 1s.025.669.051 1h-1.051c-.5522847 0-1 .4477153-1 1s.4477153 1 1 1h1.363c.3371668 1.4196192.9119341 2.7720129 1.7 4zm37 4c-6.0751322 0-11-4.9248678-11-11s4.9248678-11 11-11 11 4.9248678 11 11c-.0071635 6.0721626-4.9278374 10.9928365-11 11z"/><path id="Shape" d="m53 41h-12c-1.1045695 0-2 .8954305-2 2v8c0 1.1045695.8954305 2 2 2h12c1.1045695 0 2-.8954305 2-2v-8c0-1.1045695-.8954305-2-2-2zm-5.919 5.97c-.0507139.0408069-.1237911.0378155-.171-.007l-4.747-3.963h9.674zm-3.081.169-3 2.506v-5.011zm1.561 1.3.059.05c.3845934.3290257.8738683.5101992 1.38.511.5018099.0001974.9871024-.1793041 1.368-.506l.068-.057 3.064 2.563h-9zm4.439-1.3 3-2.505v5.012z"/></g></g></svg>