<svg height="480pt" viewBox="-24 0 480 480.511" width="480pt" xmlns="http://www.w3.org/2000/svg"><path d="m159.226562 96h44.449219c3.910157 0 7.246094-2.832031 7.886719-6.6875l6.871094-41.3125h20.800781v-16h-18.71875l2.65625-23.089844c.257813-2.261718-.460937-4.53125-1.976563-6.234375-1.515624-1.699219-3.6875-2.675781-5.96875-2.675781h-29.359374c-19.125.0351562-34.617188 15.539062-34.640626 34.664062v53.335938c0 4.417969 3.582032 8 8 8zm37.664063-16h-29.664063v-32h35zm-11.023437-64h20.367187l-1.839844 16h-36.929687c1.308594-9.164062 9.144531-15.976562 18.402344-16zm0 0"/><path d="m24.578125 264c12.03125-.046875 22.128906-9.070312 23.527344-21.015625 4.117187-29.667969 21.835937-55.722656 47.914062-70.457031l-71.945312 143.898437c-1.148438 2.296875-1.121094 5.011719.070312 7.289063 1.195313 2.277344 3.410157 3.839844 5.953125 4.207031l56 8c.375.050781.75.078125 1.128906.078125 2.945313 0 5.652344-1.613281 7.046876-4.207031l40.953124-76.058594v16.265625c.042969 3.5625.484376 7.109375 1.3125 10.574219.539063 3.945312 1.285157 7.859375 2.238282 11.722656-.386719 62.757813-47.859375 115.210937-110.269532 121.832031-12.15625 1.238282-21.371093 11.519532-21.28125 23.734375-.011718 6.890625 2.894532 13.460938 8 18.089844 4.933594 4.445313 11.519532 6.597656 18.128907 5.925781 79.671875-8.835937 142.769531-71.375 152.3125-150.96875.277343-2.398437.445312-4.855468.621093-7.285156 33.214844 5.179688 62.882813 23.671875 82.160157 51.207031 19.277343 27.535157 26.503906 61.738281 20.007812 94.71875-1.96875 9.335938 1.777344 18.953125 9.542969 24.496094s18.078125 5.957031 26.265625 1.058594c5.785156-3.394531 9.859375-9.085938 11.199219-15.65625 16.253906-81.027344-27.5625-162.125-104.238282-192.945313v-88.121094c41.390626 28.050782 92.953126 36.65625 141.207032 23.570313 12-3.304687 19.375-15.347656 16.863281-27.539063l-.167969-.757812c-.574218-2.71875-1.636718-5.3125-3.125-7.65625h38.261719c4.417969 0 8-3.582031 8-8v-56c0-4.417969-3.582031-8-8-8h-96c-4.417969 0-8 3.582031-8 8v56c.050781.542969.15625 1.078125.320313 1.601562-31.058594-1.554687-60.355469-14.890624-81.917969-37.296874-7.535157-7.804688-17.898438-12.242188-28.746094-12.304688h-66.695313c-72.128906.160156-133.070312 53.523438-142.75 125-.945312 6.898438 1.183594 13.867188 5.820313 19.0625s11.320313 8.09375 18.28125 7.9375zm110.648437-42.023438-22.113281 41.070313-41.503906-5.925781 46.777344-93.546875-.328125-.160157c5.617187-1.546874 11.363281-2.578124 17.167968-3.078124zm-52.398437 97.3125-39.480469-5.601562 20.71875-41.449219 40.96875 5.859375zm86.941406-8.199218c-8.628906 72.164062-65.824219 128.882812-138.0625 136.910156-2.097656.222656-4.191406-.476562-5.734375-1.910156-1.832031-1.699219-2.835937-4.109375-2.746094-6.601563.054688-3.921875 3.078126-7.160156 6.984376-7.488281 66.878906-7.070312 119.136718-60.9375 124.175781-128h12.839843c1.0625 0 2.089844.136719 3.136719.160156-.160156 2.3125-.328125 4.640625-.59375 6.929688zm153.015625 116.46875c.003906 10.320312-1.011718 20.617187-3.03125 30.738281-.429687 2.121094-1.75 3.957031-3.632812 5.03125-1.996094 1.1875-4.398438 1.476563-6.621094.800781-3.921875-1.339844-6.21875-5.40625-5.335938-9.457031 8.066407-40.96875-2.621093-83.398437-29.125-115.660156-26.507812-32.261719-66.058593-50.976563-107.8125-51.011719h-11.625c-1.597656-2.738281-2.769531-5.707031-3.472656-8.800781-.316406-2.398438-.589844-4.800781-.726562-7.199219h15.824218c85.875.09375 155.46875 69.683594 155.558594 155.558594zm45.480469-239.054688c-32.550781 8.859375-67.105469 6.835938-98.398437-5.761718l7.144531-14.300782c16.085937 6.257813 33.195312 9.480469 50.453125 9.496094 12.207031.011719 24.363281-1.566406 36.160156-4.699219 2.203125-.609375 4.558594-.289062 6.515625.890625 1.734375 1.054688 2.9375 2.800782 3.300781 4.800782l.167969.75c.8125 3.886718-1.523437 7.742187-5.34375 8.824218zm-32-36.503906v-33.054688l35.5625 23.710938c2.6875 1.792969 6.191406 1.792969 8.878906 0l35.558594-23.710938v33.054688zm18.402344-40h43.199219l-21.601563 14.398438zm-92.273438 49.847656-7.105469 14.214844c-8.488281-4.429688-16.542968-9.644531-24.0625-15.574219v-21.289062c9.289063 8.960937 19.777344 16.582031 31.167969 22.648437zm-47.199219-33.175781v134.289063c-15.589843-4.59375-31.75-6.9375-48-6.960938h-16v-29.976562l52.816407-98.023438h5.910156c1.789063.019531 3.570313.246094 5.304687.671875zm-29.328124-.671875-34.640626 64.265625v-40.265625c0-4.417969-3.582031-8-8-8-15.882812.023438-31.574218 3.460938-46.015624 10.070312l-7.199219-14.328124c16.679687-7.71875 34.835937-11.726563 53.214843-11.742188zm-109.9375 19.289062 7.199218 14.398438c-27.742187 17.628906-46.335937 46.554688-50.863281 79.113281-.453125 4.195313-4.0625 7.332031-8.277344 7.199219-2.203125.007812-4.300781-.945312-5.746093-2.609375-1.5-1.730469-2.1875-4.023437-1.886719-6.292969 5.113281-37.980468 26.976562-71.667968 59.574219-91.808594zm0 0"/></svg>